<svg width="111" height="44" viewBox="0 0 111 44" fill="none" xmlns="http://www.w3.org/2000/svg">
<g clip-path="url(#clip0_2_6)">
<path d="M54.3467 24.8784C58.1292 24.8784 59.5626 22.9523 59.5626 20.8056C59.5626 18.8393 58.607 17.3547 55.8 16.8129L53.4309 16.3515C51.8781 16.0505 51.5198 15.8499 51.5198 14.9872C51.5198 14.1445 52.0573 13.7633 53.7694 13.7633C55.7403 13.7633 56.3176 14.2248 56.3176 15.6292V15.8499H59.264V15.6894C59.264 13.0209 57.6714 11.0347 53.8689 11.0347C50.0466 11.0347 48.5535 13.0611 48.5535 15.1075C48.5535 17.1941 49.6285 18.4983 52.1767 18.9397L54.5259 19.361C56.3972 19.682 56.5963 20.003 56.5963 20.9059C56.5963 21.8087 56.1783 22.1498 54.4861 22.1498C52.0772 22.1498 51.5397 21.7285 51.5397 20.2438V20.0431H48.6132V20.304C48.6132 23.2734 50.4248 24.8784 54.3467 24.8784Z" fill="#4311B9"/>
<path d="M65.5999 24.8784C68.8051 24.8784 70.6764 22.832 70.6764 19.6419C70.6764 16.4317 68.8051 14.3853 65.5999 14.3853C62.3748 14.3853 60.4636 16.4317 60.4636 19.6419C60.4636 22.832 62.3748 24.8784 65.5999 24.8784ZM65.5999 22.2301C63.9674 22.2301 63.41 21.588 63.41 19.6419C63.41 17.6757 63.9674 17.0336 65.5999 17.0336C67.2124 17.0336 67.7699 17.6757 67.7699 19.6419C67.7699 21.588 67.2124 22.2301 65.5999 22.2301Z" fill="#4311B9"/>
<path d="M75.006 24.6778V18.8393C75.006 17.4148 75.6032 16.9734 76.957 16.9734C78.3904 16.9734 78.8283 17.475 78.8283 18.8795V24.6778H81.8145V18.8795C81.8145 17.4148 82.3919 16.9734 83.7456 16.9734C85.1989 16.9734 85.617 17.475 85.617 18.8795V24.6778H88.6032V18.2776C88.6032 16.1308 87.5481 14.3853 84.96 14.3853C83.1086 14.3853 82.1132 15.248 81.5557 16.3515H81.4562C80.9585 15.1677 79.9233 14.3853 78.2112 14.3853C76.4991 14.3853 75.4639 15.2079 74.9264 16.3515H74.8069V14.5859H72.0397V24.6778H75.006Z" fill="#4311B9"/>
<path d="M95.0926 24.8784C98.2978 24.8784 100.169 22.832 100.169 19.6419C100.169 16.4317 98.2978 14.3853 95.0926 14.3853C91.8675 14.3853 89.9563 16.4317 89.9563 19.6419C89.9563 22.832 91.8675 24.8784 95.0926 24.8784ZM95.0926 22.2301C93.4601 22.2301 92.9027 21.588 92.9027 19.6419C92.9027 17.6757 93.4601 17.0336 95.0926 17.0336C96.7051 17.0336 97.2626 17.6757 97.2626 19.6419C97.2626 21.588 96.7051 22.2301 95.0926 22.2301Z" fill="#4311B9"/>
<path d="M106.049 24.8784C108.816 24.8784 110.349 23.6746 110.349 21.7887C110.349 20.1435 109.473 19.1804 107.363 18.7792L105.531 18.3979C104.337 18.1572 104.157 18.0167 104.157 17.5352C104.157 17.0537 104.436 16.7929 105.631 16.7929C106.905 16.7929 107.183 17.154 107.183 17.8161V18.097H110.03V17.8161C110.03 15.5489 108.159 14.3853 105.71 14.3853C102.863 14.3853 101.35 15.7094 101.35 17.5753C101.35 19.4412 102.425 20.2839 104.396 20.6451L105.909 20.9259C107.243 21.1667 107.522 21.2871 107.522 21.8288C107.522 22.3304 107.323 22.511 106.108 22.511C104.655 22.511 104.217 22.3504 104.217 21.6081V21.1868H101.37V21.247C101.37 23.6947 102.903 24.8784 106.049 24.8784Z" fill="#4311B9"/>
<path d="M51.544 41.7321V36.7563H58.2827V34.0678H51.544V30.9981H58.5817V28.2896H48.5535V41.7321H51.544Z" fill="#4311B9"/>
<path d="M65.6029 41.9327C69.6501 41.9327 71.2251 39.9665 71.2251 37.2178C71.2251 34.5493 69.6501 32.8841 66.6995 32.8841C64.8852 32.8841 63.7289 33.4459 63.2105 33.9274H63.1308L63.3501 30.9981H70.5074V28.2896H60.6985L60.2997 35.7531L62.9513 36.1143C63.3899 35.8535 64.3669 35.4321 65.7026 35.4321C67.5767 35.4321 68.2944 35.9137 68.2944 37.3181C68.2944 38.6824 67.6365 39.184 65.7425 39.184C63.9681 39.184 63.1706 38.863 63.1706 37.8799V37.7194H60.2V37.8799C60.2 40.3677 61.9944 41.9327 65.6029 41.9327Z" fill="#4311B9"/>
<path d="M26.8059 0.133121L18.6289 0.299005L20.0895 11.1834L13.0584 1.25494L6.6621 6.51132L14.1138 14.126L2.77194 10.8016L0.756875 18.9761L10.9777 20.3733L0.264503 25.1474L3.61581 32.8413L12.3036 27.4786L6.34685 37.6781L13.5014 41.7648L17.3564 32.056L18.7667 43.7918L26.8579 42.5615L24.2287 32.512L24.2227 32.4883C28.7047 31.2239 31.9988 26.994 31.9988 21.9707C31.9988 20.623 31.7617 19.3323 31.3281 18.1408L38.57 7.87044L31.9994 2.84796L26.6413 12.508L26.8059 0.133121Z" fill="#4311B9"/>
</g>
<defs>
<clipPath id="clip0_2_6">
<rect width="111" height="44" fill="white"/>
</clipPath>
</defs>
</svg>
