<svg width="44" height="50" viewBox="0 0 44 50" fill="none" xmlns="http://www.w3.org/2000/svg">
<path d="M30.4284 0.151276L21.1464 0.33978L22.8043 12.7084L14.8231 1.42607L7.56243 7.39923L16.0211 16.0523L3.14657 12.2745L0.859202 21.5638L12.4612 23.1515L0.300293 28.5766L4.10448 37.3197L13.9663 31.2257L7.20458 42.816L15.326 47.46L19.7019 36.4273L21.3028 49.7634L30.4874 48.3653L27.5029 36.9455L27.4961 36.9185C32.5838 35.4817 36.323 30.675 36.323 24.9667C36.323 23.4352 36.0539 21.9685 35.5617 20.6145L43.7822 8.94368L36.3237 3.23632L30.2415 14.2136L30.4284 0.151276Z" fill="#4312B9"/>
</svg>
